<?xml version="1.0" encoding="iso-8859-1"?>
<!-- Generator: Adobe Illustrator 19.0.0, SVG Export Plug-In . SVG Version: 6.00 Build 0)  -->
<svg version="1.1" id="Layer_1" xmlns="http://www.w3.org/2000/svg" xmlns:xlink="http://www.w3.org/1999/xlink" x="0px" y="0px"
	 viewBox="0 0 512 512" style="enable-background:new 0 0 512 512;" xml:space="preserve">
<path style="fill:#5B7A7F;" d="M456.348,278.261v89.043v122.435c0,12.564-10.408,22.697-23.072,22.246
	c-12.063-0.429-21.449-10.71-21.449-22.78v-99.641c0-12.295-9.966-22.261-22.261-22.261l0,0c-12.295,0-22.261,9.966-22.261,22.261
	v100.174c0,12.564-10.408,22.697-23.072,22.246c-12.063-0.429-21.449-10.71-21.449-22.78V367.304v-89.043H456.348z"/>
<path style="fill:#D199D1;" d="M489.739,189.217v111.304H289.391V189.217c0-36.883,29.9-66.783,66.783-66.783h66.783
	C459.839,122.435,489.739,152.334,489.739,189.217z"/>
<path style="fill:#AF7AAE;" d="M389.565,300.522H289.391V189.217c0-36.883,29.9-66.783,66.783-66.783h33.391V300.522z"/>
<path style="fill:#F4C064;" d="M434.087,44.522c0,24.588-19.932,44.522-44.522,44.522c-24.588,0-44.522-19.933-44.522-44.522
	S364.977,0,389.565,0C414.155,0,434.087,19.933,434.087,44.522z M322.783,211.478h-33.391v122.435
	c0,12.295,9.966,22.261,22.261,22.261c12.295,0,22.261-9.966,22.261-22.261V222.609C333.913,216.461,328.93,211.478,322.783,211.478
	z M456.348,211.478c-6.147,0-11.13,4.983-11.13,11.13v111.304c0,12.295,9.966,22.261,22.261,22.261
	c12.295,0,22.261-9.966,22.261-22.261V211.478H456.348z"/>
<path style="fill:#F4AB53;" d="M389.565,0v89.043c-24.588,0-44.522-19.933-44.522-44.522S364.977,0,389.565,0z"/>
<path style="fill:#7F5D3B;" d="M306.087,489.739H267.13v-55.652h38.957c15.368,0,27.826,12.458,27.826,27.826l0,0
	C333.913,477.281,321.455,489.739,306.087,489.739z"/>
<path style="fill:#99774F;" d="M289.391,434.087v66.783c0,6.147-4.983,11.13-11.13,11.13H77.913
	c-12.295,0-22.261-9.966-22.261-22.261l0,0c0-12.295,9.966-22.261,22.261-22.261h11.13v-44.522H66.783
	c-24.588,0-44.522-19.934-44.522-44.522v-11.13c0-24.588,19.933-44.522,44.522-44.522h44.522c12.295,0,22.261,9.966,22.261,22.261
	v44.522H244.87C269.458,389.565,289.391,409.499,289.391,434.087z"/>
<path style="fill:#7F5D3B;" d="M233.739,512h-89.043v-44.522c0-12.295,9.966-22.261,22.261-22.261h44.522
	c12.295,0,22.261,9.966,22.261,22.261c-12.295,0-22.261,9.966-22.261,22.261S221.444,512,233.739,512z M111.304,378.435H22.261
	c0,24.588,19.933,44.522,44.522,44.522h44.522c12.295,0,22.261-9.966,22.261-22.261v-11.13v-11.13v-22.261h-22.261V378.435z"/>
<g>
	<path style="fill:#634429;" d="M89.043,367.304v-44.522h22.261c12.295,0,22.261,9.966,22.261,22.261v22.261
		c0,12.295-9.966,22.261-22.261,22.261l0,0C99.01,389.565,89.043,379.599,89.043,367.304z"/>
	<path style="fill:#634429;" d="M44.522,372.87c0,6.147-4.983,11.13-11.13,11.13H22.619c-0.228-1.824-0.358-3.679-0.358-5.565
		v-11.13c0-1.887,0.131-3.741,0.358-5.565h10.772C39.539,361.739,44.522,366.722,44.522,372.87z M97.391,356.174
		c0-4.61-3.738-8.348-8.348-8.348h-11.13c-4.61,0-8.348,3.738-8.348,8.348s3.738,8.348,8.348,8.348h11.13
		C93.654,364.522,97.391,360.784,97.391,356.174z"/>
</g>
<g>
</g>
<g>
</g>
<g>
</g>
<g>
</g>
<g>
</g>
<g>
</g>
<g>
</g>
<g>
</g>
<g>
</g>
<g>
</g>
<g>
</g>
<g>
</g>
<g>
</g>
<g>
</g>
<g>
</g>
</svg>
